<svg width="78" height="18" viewBox="0 0 78 18" fill="none" xmlns="http://www.w3.org/2000/svg">
<rect width="78" height="18"/>
<path d="M11.5562 13.4996H9.35625L8.15625 9.69961H3.95625L2.75625 13.4996H0.65625L4.75625 0.599609H7.35625L11.5562 13.4996ZM7.75625 8.09961L6.65625 4.69961C6.55625 4.39961 6.35625 3.49961 5.95625 2.29961C5.85625 2.79961 5.65625 3.69961 5.35625 4.69961L4.25625 8.09961H7.75625Z" fill="#582EFF"/>
<path d="M22.2559 8.79961C22.2559 10.3996 21.8559 11.5996 20.9559 12.5996C20.1559 13.3996 19.2559 13.7996 18.0559 13.7996C16.8559 13.7996 15.9559 13.3996 15.4559 12.4996V17.3996H13.3559V7.39961C13.3559 6.39961 13.3559 5.39961 13.2559 4.29961H15.0559L15.1559 5.79961C15.8559 4.69961 16.8559 4.09961 18.2559 4.09961C19.3559 4.09961 20.2559 4.49961 20.9559 5.39961C21.8559 6.19961 22.2559 7.29961 22.2559 8.79961ZM20.1559 8.79961C20.1559 7.89961 19.9559 7.09961 19.5559 6.59961C19.1559 5.99961 18.5559 5.69961 17.7559 5.69961C17.2559 5.69961 16.7559 5.89961 16.3559 6.19961C15.9559 6.49961 15.6559 6.99961 15.5559 7.49961C15.4559 7.79961 15.4559 7.99961 15.4559 8.09961V9.69961C15.4559 10.3996 15.6559 10.8996 16.0559 11.3996C16.4559 11.8996 17.0559 12.0996 17.6559 12.0996C18.4559 12.0996 19.0559 11.7996 19.4559 11.1996C19.8559 10.5996 20.1559 9.79961 20.1559 8.79961Z" fill="#582EFF"/>
<path d="M32.9551 8.79961C32.9551 10.3996 32.5551 11.5996 31.6551 12.5996C30.8551 13.3996 29.9551 13.7996 28.7551 13.7996C27.5551 13.7996 26.6551 13.3996 26.1551 12.4996V17.3996H24.0551V7.39961C24.0551 6.39961 24.0551 5.39961 23.9551 4.29961H25.7551L25.8551 5.79961C26.5551 4.69961 27.5551 4.09961 28.9551 4.09961C30.0551 4.09961 30.9551 4.49961 31.6551 5.39961C32.5551 6.19961 32.9551 7.29961 32.9551 8.79961ZM30.8551 8.79961C30.8551 7.89961 30.6551 7.09961 30.2551 6.59961C29.8551 5.99961 29.2551 5.69961 28.4551 5.69961C27.9551 5.69961 27.4551 5.89961 27.0551 6.19961C26.6551 6.49961 26.3551 6.99961 26.2551 7.49961C26.1551 7.79961 26.1551 7.99961 26.1551 8.09961V9.69961C26.1551 10.3996 26.3551 10.8996 26.7551 11.3996C27.1551 11.8996 27.7551 12.0996 28.3551 12.0996C29.1551 12.0996 29.7551 11.7996 30.1551 11.1996C30.5551 10.5996 30.8551 9.79961 30.8551 8.79961Z" fill="#582EFF"/>
<path d="M44.8551 9.9C44.8551 11 44.4551 11.9 43.7551 12.6C42.9551 13.4 41.7551 13.7 40.2551 13.7C38.8551 13.7 37.7551 13.4 36.9551 12.9L37.4551 11.2C38.3551 11.7 39.3551 12 40.4551 12C41.2551 12 41.8551 11.8 42.2551 11.5C42.6551 11.1 42.8551 10.7 42.8551 10.1C42.8551 9.6 42.6551 9.1 42.3551 8.8C41.9551 8.4 41.3551 8.1 40.5551 7.8C38.2551 7 37.1551 5.7 37.1551 4.1C37.1551 3 37.5551 2.2 38.3551 1.5C39.1551 0.8 40.1551 0.5 41.5551 0.5C42.7551 0.5 43.6551 0.7 44.4551 1.1L43.9551 2.8C43.2551 2.4 42.4551 2.2 41.4551 2.2C40.7551 2.2 40.1551 2.4 39.7551 2.7C39.4551 3 39.2551 3.4 39.2551 3.9C39.2551 4.4 39.4551 4.8 39.8551 5.2C40.1551 5.5 40.8551 5.8 41.7551 6.2C42.8551 6.6 43.6551 7.2 44.2551 7.8C44.6551 8.3 44.8551 9 44.8551 9.9Z" fill="#582EFF"/>
<path d="M51.7566 5.80039H49.4566V10.3004C49.4566 11.4004 49.8566 12.0004 50.6566 12.0004C51.0566 12.0004 51.3566 12.0004 51.5566 11.9004L51.6566 13.5004C51.2566 13.7004 50.7566 13.7004 50.0566 13.7004C49.2566 13.7004 48.5566 13.5004 48.1566 13.0004C47.6566 12.5004 47.4566 11.7004 47.4566 10.5004V5.80039H46.0566V4.20039H47.4566V2.50039L49.4566 1.90039V4.20039H51.7566V5.80039Z" fill="#582EFF"/>
<path d="M62.0551 8.8C62.0551 10.2 61.6551 11.4 60.8551 12.3C59.9551 13.2 58.8551 13.7 57.4551 13.7C56.0551 13.7 54.9551 13.2 54.1551 12.3C53.3551 11.4 52.9551 10.3 52.9551 8.9C52.9551 7.5 53.3551 6.3 54.2551 5.4C55.0551 4.5 56.2551 4 57.6551 4C59.0551 4 60.1551 4.5 60.9551 5.4C61.6551 6.3 62.0551 7.4 62.0551 8.8ZM59.8551 8.9C59.8551 8 59.6551 7.3 59.2551 6.7C58.8551 6 58.1551 5.6 57.3551 5.6C56.5551 5.6 55.8551 6 55.4551 6.7C55.0551 7.3 54.8551 8.1 54.8551 8.9C54.8551 9.8 55.0551 10.5 55.4551 11.1C55.8551 11.8 56.5551 12.2 57.3551 12.2C58.1551 12.2 58.7551 11.8 59.2551 11.1C59.6551 10.5 59.8551 9.7 59.8551 8.9Z" fill="#582EFF"/>
<path d="M68.7562 6.00039C68.5562 6.00039 68.3563 5.90039 68.0563 5.90039C67.3563 5.90039 66.7563 6.20039 66.3563 6.70039C66.0563 7.20039 65.8563 7.80039 65.8563 8.50039V13.4004H63.7562V7.00039C63.7562 5.90039 63.7563 5.00039 63.6562 4.10039H65.4563L65.5563 5.90039H65.6562C65.8563 5.30039 66.2562 4.80039 66.6562 4.40039C67.1562 4.10039 67.6562 3.90039 68.1562 3.90039C68.3563 3.90039 68.5562 3.90039 68.6562 3.90039V6.00039H68.7562Z" fill="#582EFF"/>
<path d="M77.9563 8.4C77.9563 8.8 77.9563 9.1 77.8563 9.3H71.6562C71.6562 10.2 71.9563 10.9 72.5563 11.4C73.0563 11.8 73.7563 12.1 74.5563 12.1C75.4563 12.1 76.3563 12 77.0563 11.7L77.3563 13.1C76.4563 13.5 75.4562 13.7 74.2562 13.7C72.8562 13.7 71.6563 13.3 70.8563 12.4C70.0563 11.6 69.6562 10.4 69.6562 9C69.6562 7.6 70.0562 6.4 70.7562 5.5C71.5562 4.5 72.6563 4 74.0563 4C75.3563 4 76.4563 4.5 77.0563 5.5C77.6563 6.3 77.9563 7.3 77.9563 8.4ZM75.9563 7.9C75.9563 7.3 75.8563 6.8 75.5563 6.3C75.1563 5.7 74.6563 5.4 73.9563 5.4C73.2563 5.4 72.7563 5.7 72.3563 6.2C72.0563 6.6 71.8562 7.2 71.7562 7.8H75.9563V7.9Z" fill="#582EFF"/>
</svg>
