<svg width="70" height="60" viewBox="0 0 70 60" fill="none" xmlns="http://www.w3.org/2000/svg">
<g clip-path="url(#clip0_349_2632)">
<path d="M0 5C0 2.23858 2.23858 0 5 0H65C67.7614 0 70 2.23858 70 5V55C70 57.7614 67.7614 60 65 60H5C2.23858 60 0 57.7614 0 55V5Z" fill="#FF814A" fill-opacity="0.12"/>
<path d="M56.6017 17.4317C57.3566 17.4317 57.9688 16.9069 57.9688 16.2597V3.51562C57.9688 1.57711 56.1288 0 53.8671 0H4.10156C1.83997 0 0 1.57711 0 3.51562V56.4843C0 58.4229 1.83997 60 4.10156 60H53.8671C56.1288 60 57.9688 58.4229 57.9688 56.4843V47.8509C57.9688 47.2037 57.3566 46.6791 56.6017 46.6791C55.8465 46.6791 55.2344 47.2037 55.2344 47.8509V56.4843C55.2344 57.1305 54.621 57.6562 53.8671 57.6562H4.10156C3.3477 57.6562 2.73438 57.1305 2.73438 56.4843V3.51562C2.73438 2.86946 3.3477 2.34375 4.10156 2.34375H53.8671C54.621 2.34375 55.2344 2.86946 55.2344 3.51562V16.2597C55.2344 16.9069 55.8465 17.4317 56.6017 17.4317Z" fill="#FF814A"/>
<path d="M28.9844 6.32812C22.0488 6.32812 16.4062 11.1646 16.4062 17.1093C16.4062 20.1935 17.9253 22.9786 20.355 24.9456C20.4005 24.9873 20.4489 25.0268 20.5018 25.0627C22.74 26.8181 25.7187 27.8906 28.9842 27.8906C32.2497 27.8906 35.2284 26.8181 37.4666 25.0627C37.5196 25.0268 37.568 24.9872 37.6135 24.9456C40.0435 22.9786 41.5625 20.1935 41.5625 17.1093C41.5625 11.1646 35.92 6.32812 28.9844 6.32812ZM28.9844 25.5468C26.7519 25.5468 24.6916 24.9057 23.0384 23.8279C24.2399 22.0015 26.4822 20.8593 28.9844 20.8593C31.4865 20.8593 33.7288 22.0015 34.9303 23.8279C33.2771 24.9057 31.2169 25.5468 28.9844 25.5468ZM26.7969 16.6407V15.8789C26.7969 14.8451 27.7783 14.0039 28.9844 14.0039C30.1905 14.0039 31.1719 14.8451 31.1719 15.8789V16.6407C31.1719 17.6745 30.1905 18.5157 28.9844 18.5157C27.7783 18.5157 26.7969 17.6745 26.7969 16.6407ZM36.9059 22.1114C35.8976 20.8294 34.5002 19.8326 32.8778 19.2171C33.5216 18.5039 33.9062 17.6103 33.9062 16.6407V15.8789C33.9062 13.5526 31.6985 11.6602 28.9844 11.6602C26.2703 11.6602 24.0625 13.5526 24.0625 15.8789V16.6407C24.0625 17.6103 24.4472 18.5039 25.091 19.2171C23.4685 19.8326 22.0712 20.8294 21.0628 22.1114C19.8559 20.7105 19.1406 18.9806 19.1406 17.1093C19.1406 12.4569 23.5566 8.67188 28.9844 8.67188C34.4122 8.67188 38.8281 12.4569 38.8281 17.1093C38.8281 18.9806 38.1129 20.7105 36.9059 22.1114Z" fill="#FF814A"/>
<path d="M36.3672 51.3281H28.9845C28.2295 51.3281 27.6172 51.8527 27.6172 52.4999C27.6172 53.1472 28.2295 53.6717 28.9845 53.6717H36.3672C37.1223 53.6717 37.7345 53.1472 37.7345 52.4999C37.7345 51.8527 37.1223 51.3281 36.3672 51.3281Z" fill="#FF814A"/>
<path d="M36.3671 44.7656H16.9531C16.1982 44.7656 15.5859 45.2902 15.5859 45.9374C15.5859 46.5847 16.1982 47.1092 16.9531 47.1092H36.3671C37.1222 47.1092 37.7344 46.5847 37.7344 45.9374C37.7344 45.2902 37.1222 44.7656 36.3671 44.7656Z" fill="#FF814A"/>
<path d="M36.3671 38.2031H16.9531C16.1982 38.2031 15.5859 38.7277 15.5859 39.3749C15.5859 40.0222 16.1982 40.5467 16.9531 40.5467H36.3671C37.1222 40.5467 37.7344 40.0222 37.7344 39.3749C37.7344 38.7277 37.1222 38.2031 36.3671 38.2031Z" fill="#FF814A"/>
<path d="M12.0811 31.984C11.8269 31.7659 11.4742 31.6406 11.1133 31.6406C10.7536 31.6406 10.4008 31.7659 10.1467 31.984C9.89238 32.2019 9.74609 32.5042 9.74609 32.8124C9.74609 33.1207 9.89224 33.4229 10.1467 33.6409C10.4023 33.859 10.7536 33.9842 11.1133 33.9842C11.4742 33.9842 11.8256 33.859 12.0811 33.6409C12.3354 33.4229 12.4818 33.1207 12.4818 32.8124C12.4818 32.5042 12.3355 32.2019 12.0811 31.984Z" fill="#FF814A"/>
<path d="M12.0811 38.5465C11.8256 38.3284 11.4742 38.2031 11.1133 38.2031C10.7536 38.2031 10.4023 38.3284 10.1467 38.5465C9.89238 38.7644 9.74609 39.0667 9.74609 39.3749C9.74609 39.6832 9.89224 39.9854 10.1467 40.2034C10.4023 40.4215 10.7536 40.5467 11.1133 40.5467C11.4742 40.5467 11.8256 40.4215 12.0811 40.2034C12.3354 39.9854 12.4818 39.6832 12.4818 39.3749C12.4818 39.0667 12.3355 38.7644 12.0811 38.5465Z" fill="#FF814A"/>
<path d="M12.0811 45.109C11.8256 44.8909 11.4742 44.7656 11.1133 44.7656C10.7536 44.7656 10.4023 44.8909 10.1467 45.109C9.89238 45.3269 9.74609 45.6292 9.74609 45.9374C9.74609 46.2457 9.89224 46.5479 10.1467 46.7659C10.4008 46.984 10.7536 47.1092 11.1133 47.1092C11.4742 47.1092 11.8269 46.984 12.0811 46.7659C12.3354 46.5479 12.4818 46.2457 12.4818 45.9374C12.4818 45.6292 12.3355 45.3269 12.0811 45.109Z" fill="#FF814A"/>
<path d="M36.3671 31.6406H16.9531C16.1982 31.6406 15.5859 32.1652 15.5859 32.8124C15.5859 33.4597 16.1982 33.9842 16.9531 33.9842H36.3671C37.1222 33.9842 37.7344 33.4597 37.7344 32.8124C37.7344 32.1652 37.1222 31.6406 36.3671 31.6406Z" fill="#FF814A"/>
<path d="M67.1288 15.2708C65.8005 14.6136 64.2532 14.439 62.7714 14.7792C61.2899 15.1195 60.0516 15.934 59.2847 17.0725L42.0798 42.6149C41.9856 42.755 41.926 42.9103 41.9051 43.0709L40.694 52.369C40.6339 52.8317 40.8989 53.2811 41.3691 53.5139C41.5816 53.6189 41.8173 53.671 42.0527 53.671C42.3386 53.671 42.6235 53.5942 42.8634 53.4427L51.6523 47.8946C51.8042 47.7988 51.9314 47.677 52.0256 47.5369L69.2303 21.9944C70.8136 19.6441 69.8708 16.6279 67.1288 15.2708ZM43.7582 49.967L44.3907 45.1117L48.3476 47.0699L43.7582 49.967ZM50.3412 45.3502L45.1316 42.772L58.9381 22.2748L64.1478 24.8528L50.3412 45.3502ZM66.8624 20.8225L65.5147 22.8232L60.3052 20.245L61.6528 18.2443C62.0545 17.6479 62.703 17.2213 63.479 17.0431C64.2553 16.8647 65.0659 16.9564 65.7615 17.3006C66.4571 17.645 66.9548 18.2009 67.1627 18.866C67.3708 19.5313 67.264 20.2261 66.8624 20.8225Z" fill="#FF814A"/>
</g>
<defs>
<clipPath id="clip0_349_2632">
<path d="M0 5C0 2.23858 2.23858 0 5 0H65C67.7614 0 70 2.23858 70 5V55C70 57.7614 67.7614 60 65 60H5C2.23858 60 0 57.7614 0 55V5Z" fill="white"/>
</clipPath>
</defs>
</svg>
