<svg width="78" height="68" viewBox="0 0 78 68" fill="none" xmlns="http://www.w3.org/2000/svg">
<g clip-path="url(#clip0_349_2653)">
<path d="M0 5C0 2.23858 2.23858 0 5 0H73C75.7614 0 78 2.23858 78 5V63C78 65.7614 75.7614 68 73 68H5C2.23858 68 0 65.7614 0 63V5Z" fill="#C0FEEF"/>
<g filter="url(#filter0_d_349_2653)">
<path d="M28.4063 43.3708C28.3897 43.3 28.3657 43.2303 28.3338 43.1629C28.3021 43.0964 28.2628 43.0323 28.2171 42.9725C28.1713 42.9116 28.118 42.8552 28.0597 42.8042C28.0012 42.7533 27.9365 42.7069 27.8666 42.667C27.7981 42.6271 27.7244 42.5928 27.6471 42.5652C27.5709 42.5376 27.4909 42.5153 27.4097 42.5021C27.2459 42.4732 27.077 42.4732 26.9145 42.5021C26.8333 42.5153 26.7533 42.5376 26.6758 42.5652C26.5996 42.5928 26.526 42.6271 26.4574 42.667C26.3877 42.7069 26.3229 42.7533 26.2645 42.8042C26.2062 42.8552 26.1527 42.9116 26.1071 42.9725C26.0601 43.0323 26.0221 43.0964 25.9904 43.1629C25.9586 43.2303 25.9332 43.3 25.9179 43.3708C25.9015 43.4417 25.8926 43.5148 25.8926 43.5867C25.8926 43.6587 25.9015 43.7317 25.9179 43.8025C25.9332 43.8733 25.9586 43.943 25.9904 44.0095C26.0221 44.0771 26.0601 44.1412 26.1071 44.201C26.1527 44.2618 26.2062 44.3183 26.2645 44.3692C26.3229 44.4202 26.3877 44.4666 26.4574 44.5064C26.526 44.5464 26.5996 44.5807 26.6758 44.6083C26.7533 44.6361 26.8333 44.6582 26.9145 44.6715C26.9958 44.6858 27.0796 44.6936 27.162 44.6936C27.2446 44.6936 27.3284 44.6858 27.4097 44.6715C27.4909 44.6582 27.5709 44.6361 27.6471 44.6083C27.7244 44.5807 27.7981 44.5463 27.8666 44.5064C27.9365 44.4666 28.0012 44.4202 28.0597 44.3692C28.118 44.3183 28.1713 44.2618 28.2171 44.201C28.2628 44.1412 28.3021 44.0771 28.3338 44.0095C28.3657 43.943 28.3897 43.8733 28.4063 43.8025C28.4227 43.7317 28.4316 43.6587 28.4316 43.5867C28.4316 43.5148 28.4227 43.4417 28.4063 43.3708Z" fill="#31C5A1"/>
<path d="M64.8975 43.713C64.8926 43.702 64.8874 43.691 64.8822 43.6801C63.7137 41.2966 60.9732 40.4156 57.7301 41.3812L48.8855 43.5135C48.3741 42.1635 47.0987 41.0147 45.2952 40.4312C45.284 40.4276 45.2728 40.4241 45.2616 40.4208L35.5394 37.544C34.7301 36.6322 32.1955 34.2988 27.4495 34.2988C24.1329 34.2988 21.1989 36.2824 19.5203 38.4446H7.76953C7.06838 38.4446 6.5 38.94 6.5 39.5513V53.5051C6.5 54.1163 7.06838 54.6118 7.76953 54.6118H15.3178C16.0189 54.6118 16.5873 54.1163 16.5873 53.5051V52.5495H20.1271C20.8283 52.5495 21.3967 52.0541 21.3967 51.4428V51.1242C23.4601 51.2811 24.1389 51.6224 26.034 52.5751C27.4914 53.3078 29.6941 54.4151 33.6609 55.97C33.6794 55.9772 33.6979 55.984 33.7166 55.9904C34.4779 56.2515 35.9663 56.6618 37.8011 56.6618C39.0783 56.6618 40.5236 56.4629 42.0072 55.8765L61.5568 49.7744C61.5916 49.7634 61.6259 49.7513 61.6595 49.7378C63.5278 48.9884 66.312 46.8763 64.8975 43.713ZM14.0482 52.3982H9.03906V40.658H14.0482V52.3982ZM18.8576 50.3359H16.5873V40.658H18.8576V50.3359ZM60.645 47.7076L41.104 53.8072C41.087 53.8124 41.0638 53.8204 41.0468 53.8264C41.0296 53.8325 41.0126 53.8389 40.9957 53.8457C38.2741 54.936 35.6873 54.2833 34.6734 53.9396C30.8417 52.4366 28.7966 51.4085 27.3024 50.6572C25.2249 49.6129 24.2239 49.1095 21.3967 48.9061V39.9918C22.6 38.2724 24.9337 36.5124 27.4497 36.5124C31.7642 36.5124 33.5925 38.9588 33.6643 39.0576C33.8193 39.2774 34.0577 39.443 34.3379 39.5259L44.4275 42.5114C46.0388 43.0385 46.8905 44.2417 46.4991 45.4413C46.3183 45.9954 45.9011 46.455 45.3238 46.7353C44.7517 47.0133 44.0903 47.082 43.4598 46.9298L32.0858 43.7875C31.4169 43.6028 30.7037 43.9255 30.492 44.5083C30.2801 45.091 30.6503 45.7131 31.3186 45.8976L42.7126 49.0455C42.7247 49.0487 42.7367 49.052 42.7489 49.055C43.2037 49.1677 43.6668 49.2236 44.1272 49.2236C44.9699 49.2236 45.8034 49.0364 46.5598 48.6689C47.7293 48.1008 48.5751 47.1697 48.9413 46.0468C48.9705 45.9571 48.9963 45.8675 49.0188 45.7778L58.5509 43.4757C59.9276 43.0659 61.7347 42.9181 62.5393 44.5337C63.3721 46.4303 61.2076 47.4737 60.645 47.7076Z" fill="#31C5A1"/>
<path d="M52.0834 14.5564C52.0668 14.4856 52.0427 14.4159 52.0096 14.3483C51.9779 14.2819 51.9399 14.2177 51.8929 14.158C51.8471 14.0971 51.7938 14.0407 51.7355 13.9897C51.6771 13.9388 51.6123 13.8923 51.5424 13.8525C51.474 13.8127 51.4002 13.7783 51.3242 13.7507C51.2467 13.723 51.1667 13.7009 51.0868 13.6876C50.923 13.6588 50.7541 13.6588 50.5903 13.6876C50.5091 13.7009 50.4291 13.723 50.3529 13.7507C50.2756 13.7783 50.2019 13.8127 50.1334 13.8525C50.0635 13.8923 49.9987 13.9388 49.9403 13.9897C49.882 14.0407 49.8287 14.0971 49.7829 14.158C49.7372 14.2177 49.6979 14.2819 49.6662 14.3483C49.6343 14.4159 49.609 14.4856 49.5937 14.5564C49.5773 14.6272 49.5684 14.7003 49.5684 14.7722C49.5684 14.8441 49.5773 14.9172 49.5937 14.9881C49.609 15.0589 49.6343 15.1286 49.6662 15.195C49.6979 15.2625 49.7372 15.3266 49.7829 15.3864C49.8287 15.4473 49.882 15.5037 49.9403 15.5547C49.9987 15.6056 50.0635 15.6521 50.1334 15.692C50.2019 15.7318 50.2756 15.7661 50.3529 15.7937C50.4291 15.8215 50.5091 15.8425 50.5903 15.8569C50.6716 15.8712 50.7554 15.879 50.838 15.879C50.9204 15.879 51.0042 15.8712 51.0868 15.8569C51.1667 15.8425 51.2467 15.8215 51.3242 15.7937C51.4002 15.7661 51.474 15.7318 51.5424 15.692C51.6123 15.6521 51.6771 15.6056 51.7355 15.5547C51.7938 15.5037 51.8471 15.4473 51.8929 15.3864C51.9399 15.3266 51.9779 15.2625 52.0096 15.195C52.0427 15.1286 52.0668 15.0589 52.0834 14.9881C52.0998 14.9172 52.1074 14.8441 52.1074 14.7722C52.1074 14.7003 52.0998 14.6272 52.0834 14.5564Z" fill="#31C5A1"/>
<path d="M70.2295 3.74837H62.6814C61.9802 3.74837 61.4118 4.24388 61.4118 4.85514V5.81073H57.872C57.1709 5.81073 56.6024 6.30623 56.6024 6.9175V7.23603C54.539 7.07898 53.8603 6.73788 51.9653 5.78517C50.5079 5.05248 48.305 3.94516 44.3382 2.39026C44.3197 2.38296 44.3012 2.3762 44.2823 2.36979C42.9911 1.92685 39.6069 1.05539 35.9924 2.48344L30.8839 4.07809L26.5776 0.324145C26.082 -0.108048 25.2781 -0.108048 24.7823 0.324145L10.6451 12.6488C10.1878 13.0476 10.1001 13.739 10.6451 14.2141L34.8026 35.2744C35.1892 35.6116 36.0943 35.7136 36.598 35.2744L49.5048 24.0226C49.8403 24.0479 50.1886 24.0615 50.5495 24.0615C53.8663 24.0615 56.8002 22.0779 58.4787 19.9159H70.2295C70.9307 19.9159 71.4991 19.4205 71.4991 18.8092V4.85514C71.4991 4.24388 70.9307 3.74837 70.2295 3.74837ZM25.68 2.67193L28.5735 5.19448C27.7134 5.65822 26.7189 5.90635 25.68 5.90635C24.6408 5.90635 23.6465 5.65834 22.7864 5.19448L25.68 2.67193ZM16.2318 15.9541L13.3383 13.4314L16.2318 10.9088C16.7638 11.6587 17.0483 12.5256 17.0483 13.4314C17.0483 14.3372 16.7639 15.2041 16.2318 15.9541ZM35.7004 32.9266L32.8074 30.4045C34.5738 29.4542 36.8268 29.4542 38.5934 30.4045L35.7004 32.9266ZM40.4225 28.81C37.6171 27.0359 33.7839 27.0359 30.9785 28.81L18.0609 17.5485C19.0523 16.3598 19.5874 14.9319 19.5874 13.4314C19.5874 11.9307 19.0523 10.503 18.0609 9.31433L20.9576 6.78912C22.321 7.6534 23.9586 8.12001 25.68 8.12001C27.4014 8.12001 29.039 7.6534 30.4026 6.78912L33.1485 9.18295C32.556 9.2592 31.9782 9.42943 31.4393 9.69117C30.5293 10.1332 29.8155 10.7952 29.3709 11.596C27.9387 11.8272 26.6131 12.4316 25.5731 13.3382C22.7514 15.7981 22.7514 19.8005 25.5731 22.2604C26.9839 23.4903 28.837 24.1053 30.6902 24.1053C32.5433 24.1053 34.3967 23.4903 35.8075 22.2604C36.7253 21.4602 37.3683 20.4768 37.6904 19.4049L41.9768 20.6733C41.4943 22.622 41.9885 24.6722 43.3216 26.2826L40.4225 28.81ZM32.7039 17.929C32.7151 17.9326 32.7263 17.9361 32.7375 17.9395L35.2761 18.6906C35.0845 19.4449 34.6506 20.1385 34.012 20.6952C32.1805 22.2918 29.2001 22.2921 27.3687 20.6952C25.537 19.0985 25.537 16.5003 27.3687 14.9035C27.8104 14.5181 28.3318 14.217 28.8999 14.0128C29.1343 15.713 30.5386 17.2285 32.7039 17.929ZM45.1509 24.6877C44.661 23.9915 44.3836 23.1969 44.3399 22.386C44.9479 22.7694 45.6911 23.1448 46.5788 23.4429L45.1509 24.6877ZM56.6023 18.3679C55.3991 20.0876 53.0655 21.8477 50.5495 21.8477C50.0787 21.8477 49.6375 21.8185 49.2251 21.7665C49.2235 21.7662 49.2219 21.7661 49.2202 21.7658C46.4785 21.4186 45.0037 20.0601 44.5176 19.5222C44.4916 19.4891 44.3813 19.3633 44.3651 19.3423C44.217 19.1118 43.9746 18.9267 43.6653 18.8351L33.5715 15.8485C31.9608 15.3214 31.1093 14.1189 31.4996 12.9196C31.4998 12.9189 31.5001 12.9181 31.5003 12.9173C31.5007 12.9164 31.5009 12.9154 31.5012 12.9145C31.6826 12.3623 32.0992 11.9042 32.6751 11.6245C33.2471 11.3466 33.9085 11.2776 34.5392 11.43L45.9133 14.5723C46.5819 14.7571 47.2952 14.4343 47.507 13.8515C47.7189 13.2688 47.3487 12.6468 46.6804 12.4621L37.6343 9.96301L37.5553 9.89415C37.5545 9.89349 37.5539 9.89272 37.5529 9.89206L32.8696 5.80918L36.8951 4.55256C36.9086 4.54824 36.9255 4.54282 36.9388 4.53806C36.9422 4.53685 36.9489 4.53462 36.9521 4.5334C36.9695 4.52733 36.9864 4.52091 37.0033 4.51415C39.7247 3.42376 42.3115 4.07643 43.3255 4.42018C47.1573 5.9233 49.2025 6.95137 50.6967 7.70253C52.7743 8.74699 53.7753 9.25024 56.6023 9.45377V18.3679ZM61.4118 17.7022H59.1415V8.02427H61.4118V17.7022ZM68.9601 17.7022H63.9508V5.96191H68.9601V17.7022Z" fill="#31C5A1"/>
</g>
</g>
<defs>
<filter id="filter0_d_349_2653" x="2.5" y="0" width="72.999" height="64.6621" filterUnits="userSpaceOnUse" color-interpolation-filters="sRGB">
<feFlood flood-opacity="0" result="BackgroundImageFix"/>
<feColorMatrix in="SourceAlpha" type="matrix" values="0 0 0 0 0 0 0 0 0 0 0 0 0 0 0 0 0 0 127 0" result="hardAlpha"/>
<feOffset dy="4"/>
<feGaussianBlur stdDeviation="2"/>
<feColorMatrix type="matrix" values="0 0 0 0 0 0 0 0 0 0 0 0 0 0 0 0 0 0 0.25 0"/>
<feBlend mode="normal" in2="BackgroundImageFix" result="effect1_dropShadow_349_2653"/>
<feBlend mode="normal" in="SourceGraphic" in2="effect1_dropShadow_349_2653" result="shape"/>
</filter>
<clipPath id="clip0_349_2653">
<path d="M0 5C0 2.23858 2.23858 0 5 0H73C75.7614 0 78 2.23858 78 5V63C78 65.7614 75.7614 68 73 68H5C2.23858 68 0 65.7614 0 63V5Z" fill="white"/>
</clipPath>
</defs>
</svg>
