<svg width="47" height="40" viewBox="0 0 47 40" fill="none" xmlns="http://www.w3.org/2000/svg">
<rect width="47" height="40"/>
<path d="M43.0022 20.7713L33.5905 30.183L26.3694 37.3636L25.558 38.1343C25.3958 38.2966 25.2335 38.4183 25.0712 38.54C24.9901 38.5806 24.9089 38.6617 24.9089 38.6617L24.4627 38.9863C21.8663 40.609 18.3775 40.2439 16.1463 38.0126L1.25782 22.9619C-0.446033 21.2175 -0.405465 18.4183 1.33896 16.7145L17.2822 1.25807C19.0266 -0.405222 21.7446 -0.405222 23.4485 1.29863L26.5722 4.42237L26.6939 4.54407L35.1321 12.9416L43.0022 20.7713Z" fill="#24C6A1"/>
<path d="M43.0019 20.7708L33.5902 30.1825L26.3691 37.3631L25.5577 38.1338C25.3955 38.2961 25.2332 38.4178 25.0709 38.5395C24.9898 38.5801 24.9086 38.6612 24.9086 38.6612L24.4624 38.9858C24.6652 38.7424 26.6936 36.2677 24.1378 33.0629L14.2393 22.8803C12.5354 21.1359 12.576 18.3367 14.3204 16.6328L26.5719 4.42188L26.6936 4.54358L35.1318 12.9411L43.0019 20.7708Z" fill="#0FA47F"/>
<path d="M44.341 10.427L41.0956 7.1004L35.7406 1.5426C34.0773 -0.201831 31.2782 -0.242399 29.5337 1.42089L27.5865 3.40872L26.5723 4.42292L26.694 4.54462L33.7528 11.5629C34.483 12.2931 34.483 13.5102 33.7528 14.2404L28.8035 19.0274C27.0591 20.7313 27.0185 23.5304 28.7629 25.2749L33.6311 30.1836L43.0023 20.7718L44.3005 19.5142C46.7751 16.999 46.8157 12.9422 44.341 10.427Z" fill="#5718FF"/>
</svg>
