<svg width="82" height="18" viewBox="0 0 82 18" fill="none" xmlns="http://www.w3.org/2000/svg">
<path fill-rule="evenodd" clip-rule="evenodd" d="M33.2996 16.6988C32.7996 16.2988 32.3996 15.5988 32.1996 15.1988L33.7996 14.4988C33.8996 14.6988 34.0996 14.9988 34.2996 15.2988C34.6996 15.6988 35.2996 16.0988 35.8996 16.0988C36.4996 16.0988 37.1996 15.7988 37.5996 15.2988C37.8996 14.7988 38.0996 14.2988 38.0996 13.5988V12.9988C36.8996 14.4988 34.3996 14.2988 32.9996 12.6988C31.4996 11.0988 31.4996 8.39883 32.9996 6.79883C34.4996 5.29883 36.6996 5.09883 37.9996 6.49883V5.79883H39.6996V13.3988C39.6996 15.2988 38.9996 16.3988 38.0996 17.0988C37.4996 17.5988 36.5996 17.7988 35.7996 17.7988C34.8996 17.5988 33.9996 17.2988 33.2996 16.6988ZM75.2 17.0988L76.9 13.0988L73.9 6.19883H75.6L77.7 11.0988L79.8 6.19883H81.5L76.9 17.0988H75.2ZM67.1 13.2988C66.6 12.7988 66.4 12.0988 66.4 11.3988C66.4 10.7988 66.6 10.1988 67 9.79883C67.7 9.09883 68.7 8.79883 69.8 8.79883C70.5 8.79883 71.1 8.89883 71.6 9.19883C71.6 7.99883 70.6 7.49883 69.8 7.49883C69.1 7.49883 68.4 7.89883 68.1 8.59883L66.6 7.99883C66.9 7.29883 67.7 5.99883 69.7 5.99883C70.7 5.99883 71.7 6.29883 72.3 6.99883C72.9 7.69883 73.1 8.49883 73.1 9.59883V13.7988H71.4V13.0988C71.2 13.3988 70.8 13.5988 70.5 13.7988C70.1 13.9988 69.6 14.0988 69.1 14.0988C68.5 13.9988 67.6 13.7988 67.1 13.2988ZM13.7996 9.69883C13.7996 7.69883 15.2996 5.49883 17.9996 5.49883C20.5996 5.49883 22.1996 7.69883 22.1996 9.69883C22.1996 11.6988 20.6996 13.8988 17.9996 13.8988C15.2996 13.8988 13.7996 11.6988 13.7996 9.69883ZM22.7996 9.69883C22.7996 7.69883 24.2996 5.49883 26.9996 5.49883C29.5996 5.49883 31.1996 7.69883 31.1996 9.69883C31.1996 11.6988 29.6996 13.8988 26.9996 13.8988C24.3996 13.8988 22.7996 11.6988 22.7996 9.69883ZM2.49958 11.8988C-0.000423193 9.39883 0.0995791 5.29883 2.59958 2.69883C3.89958 1.39883 5.49958 0.798828 7.19958 0.798828C8.79958 0.798828 10.3996 1.39883 11.5996 2.59883L10.3996 3.89883C8.59958 2.09883 5.69958 2.19883 3.99958 3.99883C2.19958 5.89883 2.19958 8.79883 3.99958 10.6988C5.79958 12.5988 8.79958 12.6988 10.5996 10.7988C11.1996 10.1988 11.3996 9.39883 11.4996 8.59883H7.19958V6.79883H13.0996C13.1996 7.19883 13.1996 7.69883 13.1996 8.19883C13.1996 9.69883 12.5996 11.1988 11.5996 12.1988C10.4996 13.2988 8.89958 13.8988 7.29958 13.8988C5.59958 13.7988 3.79958 13.1988 2.49958 11.8988ZM44.7996 12.5988C43.2996 10.9988 43.2996 8.29883 44.7996 6.59883C46.2996 4.99883 48.7996 4.99883 50.1996 6.59883C50.6996 7.09883 50.9996 7.79883 51.2996 8.49883L45.7996 10.7988C46.0996 11.4988 46.7996 12.0988 47.7996 12.0988C48.6996 12.0988 49.2996 11.7988 49.8996 10.8988L51.3996 11.8988C51.1996 12.0988 50.9996 12.2988 50.8996 12.4988C49.1996 14.1988 46.2996 14.1988 44.7996 12.5988ZM55.1996 13.7988V2.69883H58.7996C60.9 2.69883 62.6 4.19883 62.6 5.99883C62.6 7.79883 61.1 9.29883 59.1996 9.29883H56.9996V13.7988H55.1996ZM63.6 13.7988V2.69883H65.3V13.7988H63.6ZM40.9996 13.5988V1.19883H42.7996V13.5988H40.9996ZM71.5 10.4988C71.1 10.1988 70.5 10.0988 69.9 10.0988C68.7 10.0988 68 10.6988 68 11.3988C68 12.0988 68.7 12.4988 69.4 12.4988C70.4 12.4988 71.5 11.6988 71.5 10.4988ZM20.2996 9.69883C20.2996 8.49883 19.4996 7.19883 17.9996 7.19883C16.4996 7.19883 15.6996 8.49883 15.6996 9.69883C15.6996 10.8988 16.4996 12.1988 17.9996 12.1988C19.3996 12.1988 20.2996 10.8988 20.2996 9.69883ZM29.2996 9.69883C29.2996 8.49883 28.4996 7.19883 26.9996 7.19883C25.4996 7.19883 24.6996 8.49883 24.6996 9.69883C24.6996 10.8988 25.4996 12.1988 26.9996 12.1988C28.4996 12.1988 29.2996 10.8988 29.2996 9.69883ZM38.1996 10.3988C38.1996 10.2988 38.1996 10.1988 38.2996 10.0988C38.2996 9.99883 38.2996 9.79883 38.2996 9.69883C38.2996 9.59883 38.2996 9.39883 38.2996 9.29883V9.19883C38.2996 9.09883 38.1996 8.89883 38.1996 8.79883C37.8996 7.79883 36.9996 7.09883 36.0996 7.09883C34.8996 7.09883 33.8996 8.29883 33.8996 9.59883C33.8996 10.9988 34.8996 12.0988 36.1996 12.0988C36.9996 12.1988 37.7996 11.4988 38.1996 10.3988ZM45.4996 9.49883L49.1996 7.89883C48.7996 7.19883 48.1996 6.99883 47.6996 6.99883C46.1996 7.09883 45.2996 8.69883 45.4996 9.49883ZM60.8 6.09883C60.8 5.09883 59.9996 4.39883 58.8996 4.39883H56.8996V7.89883H58.9996C59.9996 7.89883 60.8 7.09883 60.8 6.09883Z" fill="#31C5A1"/>
</svg>
